<?xml version="1.0" encoding="UTF-8"?>
<svg width="53px" height="53px" viewBox="0 0 53 53" version="1.1" xmlns="http://www.w3.org/2000/svg" xmlns:xlink="http://www.w3.org/1999/xlink">
    <title>Facebook Icon</title>
    <g id="Page-1" stroke="none" stroke-width="1" fill="none" fill-rule="evenodd">
        <g id="Homepage-v3" transform="translate(-818.000000, -4928.000000)">
            <g id="Group" transform="translate(0.000000, 4548.000000)">
                <g id="Footer-Desktop-Wireframe" transform="translate(0.000000, 151.000000)">
                    <g id="Facebook-Icon" transform="translate(818.000000, 229.000000)">
                        <circle id="Oval" fill="#ffffff" cx="26.5" cy="26.5" r="26.5"></circle>
                        <path d="M28.0156059,39.9999928 L28.0156059,29.2656434 L31.4374727,29.2656434 L31.9999714,25.0000286 L28.0156059,25.0000286 L28.0156059,22.0469107 C28.0156059,21.3594121 28.1406058,20.8594137 28.390605,20.5469142 C28.7031045,20.1719151 29.2812279,19.9844156 30.1249759,19.9844156 L32.3749705,19.9844156 L32.3749705,16.1875496 C31.5312225,16.0625497 30.4374754,16.0000501 29.0937283,16.0000501 C27.4374825,16.0000501 26.1093602,16.4922364 25.1093628,17.476609 C24.1093654,18.4609817 23.6093664,19.8437909 23.6093664,21.6250367 L23.6093664,25.0000286 L20,25.0000286 L20,29.2656434 L23.6093664,29.2656434 L23.6093664,39.9999928 L28.0156059,39.9999928 Z" id="" fill="hsl(26, 100%, 55%)" fill-rule="nonzero"></path>
                    </g>
                </g>
            </g>
        </g>
    </g>
</svg>