<?xml version="1.0" encoding="UTF-8"?>
<svg width="53px" height="53px" viewBox="0 0 53 53" version="1.1" xmlns="http://www.w3.org/2000/svg" xmlns:xlink="http://www.w3.org/1999/xlink">
    <title>Instagram Icon</title>
    <g id="Page-1" stroke="none" stroke-width="1" fill="none" fill-rule="evenodd">
        <g id="Homepage-v3" transform="translate(-974.000000, -4928.000000)">
            <g id="Group" transform="translate(0.000000, 4548.000000)">
                <g id="Footer-Desktop-Wireframe" transform="translate(0.000000, 151.000000)">
                    <g id="Social-icons" transform="translate(818.000000, 229.000000)">
                        <g id="Instagram-Icon" transform="translate(156.000000, 0.000000)">
                            <circle id="Oval" fill="#ffffff" cx="26.5" cy="26.5" r="26.5"></circle>
                            <path d="M25.8741501,37.4997218 C27.7116089,37.4969752 29.0478181,37.4736293 29.882777,37.4296841 C30.7733999,37.3828092 31.5468355,37.2499973 32.203084,37.0312475 C32.9843324,36.7499982 33.6640182,36.3203115 34.2421416,35.7421881 C34.820265,35.1640647 35.2499517,34.4843789 35.531201,33.7031305 C35.7499508,33.046882 35.8827627,32.2734464 35.9296376,31.3828235 C35.9765125,30.4922006 35.9999499,29.0312664 35.9999499,27.0000215 L35.9992175,26.2654041 C35.9957996,24.6145293 35.9804189,23.4062802 35.953075,22.6406569 C35.8905754,21.7344093 35.7499508,20.9531609 35.531201,20.2969124 C35.2499517,19.5156641 34.820265,18.8359782 34.2421416,18.2578548 C33.6640182,17.6797314 32.9843324,17.2500447 32.203084,16.9687954 C31.5468355,16.7500457 30.7733999,16.6172337 29.882777,16.5703588 C28.9921541,16.5234839 27.5312199,16.5000465 25.499975,16.5000465 L25.1257999,16.5003211 C23.288341,16.5030677 21.9521319,16.5264136 21.1171729,16.5703588 C20.22655,16.6172337 19.4531144,16.7500457 18.7968659,16.9687954 C18.0156176,17.2500447 17.3359317,17.6797314 16.7578083,18.2578548 C16.1796849,18.8359782 15.7499982,19.5156641 15.4687489,20.2969124 C15.2499992,20.9531609 15.1171872,21.7265965 15.0703123,22.6172194 C15.0234374,23.5078423 15,24.9687765 15,27.0000215 L15.0002747,27.3741966 C15.0030212,29.2116554 15.0263671,30.5478646 15.0703123,31.3828235 C15.1171872,32.2734464 15.2499992,33.046882 15.4687489,33.7031305 C15.7499982,34.4843789 16.1796849,35.1640647 16.7578083,35.7421881 C17.3359317,36.3203115 18.0156176,36.7343735 18.7968659,36.9843727 C19.4531144,37.2343718 20.22655,37.3828092 21.1171729,37.4296841 C22.0077958,37.476559 23.46873,37.4999964 25.499975,37.4999964 L25.8741501,37.4997218 Z M26.2499732,35.6250009 L24.7499768,35.6250009 C23.4999795,35.6250009 22.5312323,35.6093762 21.8437337,35.578126 C20.6874862,35.5156264 19.8437382,35.3906265 19.3124897,35.2031269 C18.3749955,34.8281278 17.7031188,34.1562546 17.2968695,33.1875067 C17.10937,32.6562582 16.98437,31.8125102 16.9218704,30.6562627 C16.8906203,29.9687641 16.8749955,29.0000169 16.8749955,27.7500197 L16.8749955,27.7500197 L16.8749955,26.2500232 C16.8749955,25.000026 16.8906203,24.0312788 16.9218704,23.3437802 C16.98437,22.1562832 17.10937,21.3125353 17.2968695,20.8125362 C17.6718686,19.8437883 18.3437418,19.1719151 19.3124897,18.796916 C19.8437382,18.6094165 20.6874862,18.4844165 21.8437337,18.4219169 C22.5312323,18.3906667 23.4999795,18.375042 24.7499768,18.375042 L26.6165349,18.3755108 C27.6909074,18.3783232 28.5374675,18.3937918 29.1562162,18.4219169 C30.3437132,18.4844165 31.1874612,18.6094165 31.6874602,18.796916 C32.6562081,19.1719151 33.3280813,19.8437883 33.7030804,20.8125362 C33.89058,21.3125353 34.0155799,22.1562832 34.0780795,23.3437802 C34.1093297,24.0000286 34.1249544,24.9687765 34.1249544,26.2500232 L34.1244857,28.1165813 C34.1216732,29.1909539 34.1062047,30.037514 34.0780795,30.6562627 C34.0155799,31.8125102 33.89058,32.6562582 33.7030804,33.1875067 C33.3280813,34.1250045 32.6562081,34.7968776 31.6874602,35.2031269 C31.1874612,35.3906265 30.3437132,35.5156264 29.1562162,35.578126 C28.4999678,35.6093762 27.5312199,35.6250009 26.2499732,35.6250009 L26.2499732,35.6250009 Z M31.1249616,22.6406569 C31.4687105,22.6406569 31.7577725,22.5156569 31.992147,22.2656577 C32.2265214,22.0156586 32.3593396,21.7187838 32.3905835,21.3750349 C32.3905835,21.0312859 32.2655836,20.7344112 32.0155844,20.484412 C31.7655853,20.2344128 31.4687105,20.1094129 31.1249616,20.1094129 C30.7812126,20.1094129 30.4843378,20.2344128 30.2343387,20.484412 C29.9843395,20.7344112 29.8593396,21.0312859 29.8593396,21.3750349 C29.8593396,21.7187838 29.9843395,22.0156586 30.2343387,22.2656577 C30.4843378,22.5156569 30.7812126,22.6406569 31.1249616,22.6406569 Z M25.499975,32.3906336 C26.4687229,32.3906336 27.3671578,32.1484464 28.195281,31.6640728 C29.0234043,31.1796992 29.6796527,30.5234508 30.1640263,29.6953275 C30.6484,28.8672043 30.8905871,27.9687694 30.8905871,27.0000215 C30.8905871,26.0312735 30.6484,25.1328386 30.1640263,24.3047154 C29.6796527,23.4765921 29.0234043,22.8203437 28.195281,22.3359701 C27.3671578,21.8515965 26.4687229,21.6094093 25.499975,21.6094093 C24.531227,21.6094093 23.6327922,21.8515965 22.8046689,22.3359701 C21.9765456,22.8203437 21.3202972,23.4765921 20.8359236,24.3047154 C20.35155,25.1328386 20.1093628,26.0312735 20.1093628,27.0000215 C20.1093628,27.9687694 20.35155,28.8672043 20.8359236,29.6953275 C21.3202972,30.5234508 21.9765456,31.1796992 22.8046689,31.6640728 C23.6327922,32.1484464 24.531227,32.3906336 25.499975,32.3906336 Z M25.499975,30.5156381 C24.531227,30.5156381 23.7031045,30.1718891 23.0156059,29.4843905 C22.3281073,28.7968919 21.9843583,27.9687694 21.9843583,27.0000215 C21.9843583,26.0312735 22.3281073,25.203151 23.0156059,24.5156524 C23.7031045,23.8281538 24.531227,23.4844048 25.499975,23.4844048 C26.4687229,23.4844048 27.2968454,23.8281538 27.984344,24.5156524 C28.6718426,25.203151 29.0155916,26.0312735 29.0155916,27.0000215 C29.0155916,27.9687694 28.6718426,28.7968919 27.984344,29.4843905 C27.2968454,30.1718891 26.4687229,30.5156381 25.499975,30.5156381 Z" id="" fill="hsl(26, 100%, 55%)" fill-rule="nonzero"></path>
                        </g>
                    </g>
                </g>
            </g>
        </g>
    </g>
</svg>