<?xml version="1.0" encoding="UTF-8"?>
<svg width="53px" height="53px" viewBox="0 0 53 53" version="1.1" xmlns="http://www.w3.org/2000/svg" xmlns:xlink="http://www.w3.org/1999/xlink">
    <title>Youtube Icon</title>
    <g id="Page-1" stroke="none" stroke-width="1" fill="none" fill-rule="evenodd">
        <g id="Homepage-v3" transform="translate(-1130.000000, -4928.000000)">
            <g id="Group" transform="translate(0.000000, 4548.000000)">
                <g id="Footer-Desktop-Wireframe" transform="translate(0.000000, 151.000000)">
                    <g id="Social-icons" transform="translate(818.000000, 229.000000)">
                        <g id="Youtube-Icon" transform="translate(312.000000, 0.000000)">
                            <circle id="Oval" fill="#ffffff" cx="26.5" cy="26.5" r="26.5"></circle>
                            <path d="M36.7142857,24.4318028 C34.7763945,24.4365345 32.8860277,23.8196158 31.3102352,22.6681981 L31.3102352,30.698553 C31.3091396,33.7442129 29.4567181,36.4694672 26.6622251,37.5366348 C23.867732,38.6038023 20.7178593,37.7888358 18.7587105,35.4917586 C16.7995616,33.1946813 16.4424516,29.897755 17.8626666,27.2192638 C19.2828815,24.5407725 22.1822534,23.0430543 25.137636,23.4612586 L25.137636,27.5002503 C23.7829382,27.0652769 22.3078109,27.5682868 21.481213,28.7470695 C20.654615,29.9258522 20.6637754,31.5134069 21.503919,32.6821684 C22.3440625,33.8509299 23.824892,34.3361672 25.1744764,33.8849344 C26.5240607,33.4337015 27.4367115,32.1482053 27.4366794,30.698553 L27.4366794,15 L31.3102352,15 C31.3075446,15.3339122 31.334951,15.6673691 31.3921081,15.9961558 C31.6641429,17.4795233 32.5223857,18.7831641 33.7651012,19.6006493 C34.6399039,20.191105 35.6655416,20.5058169 36.7142857,20.5055919 L36.7142857,24.4318028 Z" id="Path" fill="hsl(26, 100%, 55%)" fill-rule="nonzero"></path>
                        </g>
                    </g>
                </g>
            </g>
        </g>
    </g>
</svg>